<?xml version="1.0" encoding="utf-8"?>
<!-- Generator: Adobe Illustrator 22.1.0, SVG Export Plug-In . SVG Version: 6.00 Build 0)  -->
<svg version="1.1" xmlns="http://www.w3.org/2000/svg" xmlns:xlink="http://www.w3.org/1999/xlink" x="0px" y="0px"
	 viewBox="0 0 626 250.2" style="enable-background:new 0 0 626 250.2;" xml:space="preserve">
<style type="text/css">
	.st0{display:none;}
	.st1{display:inline;fill:none;}
	.st2{display:inline;}
	.st3{font-family:'Helvetica-Bold';}
	.st4{font-size:21px;}
	.st5{font-family:'Helvetica';}
	.st6{font-size:14px;}
	.st7{display:inline;fill:#FFB27D;}
	.st8{fill:#FFE7AE;}
	.st9{fill:#B9E29B;}
	.st10{fill:#FFB3BA;}
	.st11{fill:none;stroke:#B9E29B;stroke-miterlimit:10;}
</style>
<g id="Layer_2" class="st0">
	<rect x="160.9" y="177.1" class="st1" width="188.7" height="70"/>
	<text transform="matrix(1 0 0 1 179.4496 192.1986)" class="st2"><tspan x="0" y="0" class="st3 st4">Haiyang Kehoe</tspan><tspan x="20.6" y="16.8" class="st5 st6">Graduate Student</tspan><tspan x="11.7" y="33.6" class="st5 st6">University of Arizona</tspan><tspan x="-10.9" y="50.4" class="st5 st6">Department of Geosciences</tspan></text>
	<circle class="st7" cx="432.1" cy="212.1" r="35"/>
</g>
<g id="Layer_1">
	<g id="XMLID_1_">
		<g>
			<path class="st8" d="M627,231.9v19H-1v-16h1.7c12.1-6.8,55.6-10.5,56.6-12.1c0.3-0.5,8.7-1.9,10.6-2.7c1.6-0.6,8.6-0.3,9.9-1
				c1.7-1,8.4-2.1,10-2.7c1.4-0.5,8.7,0.3,10.4-0.2c1-0.3,7-0.7,8.7-2c1.8-1.3,11.6-2.3,12.9-2.2c1.2,0.1,9,0.9,10.6,2.2
				c1.2,1,15.4,1.8,18.8,3.5c5.2,2.5,21.7,2.4,22.7,3.9c1.2,2,8.8,3.6,9.2,3.7c0.8,0.2,25-6.7,30.6-8.4c1-0.3,10.5-0.4,13.3-1.2
				c3.1-0.9,9.9-1.2,10.9-1.2c2.9-0.2,20.8,2,25.4,4.2c3.2,1.5,21.9,2,25.1,2.5c5.8,0.9,22.6,0.3,23.4,0c0.6-0.2,7.6-0.6,8.7-1.5
				c3.4-2.6,18-5.8,20.5-6.9c1.6-0.7,12.2,0.5,15.7,0c3.3-0.5,14.5-1.9,16.2-1.5c1.5,0.4,8.5,1.6,10,2.7c2.4,1.7,23.7,1.5,26.7,0.7
				c5.5-1.5,25.8-5.1,29.5-4.9c2.2,0.1,11.1,1.3,14.1,2c4.9,1,26.2-1.5,28.9,0c1.2,0.7,7.3,1.7,8.8,2c1.4,0.2,7.7-0.6,8.8-0.5
				c2.1,0.2,14.9,3.1,15.8,4.7c2.5,4.2,48,4.7,59,7.4c4.5,1.1,46.4,3.7,54.1,6.7H627z"/>
			<path class="st9" d="M627,212.7v19.2h-0.3c-7.6-3-49.5-5.5-54.1-6.7c-11-2.7-56.5-3.2-59-7.4c-0.9-1.6-13.7-4.5-15.8-4.7
				c-1.2-0.1-7.4,0.7-8.8,0.5c-1.4-0.2-7.5-1.3-8.8-2c-2.6-1.5-24,1-28.9,0c-3-0.7-11.9-1.9-14.1-2c-3.8-0.1-24,3.5-29.5,4.9
				c-3,0.8-24.3,1-26.7-0.7c-1.5-1.1-8.5-2.3-10-2.7c-1.7-0.4-12.9,1-16.2,1.5c-3.5,0.5-14.1-0.7-15.7,0c-2.6,1.1-17.1,4.3-20.5,6.9
				c-1.2,0.9-8.1,1.3-8.7,1.5c-0.8,0.3-17.7,0.9-23.4,0c-3.2-0.5-21.9-1-25.1-2.5c-4.7-2.1-22.5-4.4-25.4-4.2
				c-1,0.1-7.8,0.3-10.9,1.2c-2.8,0.8-12.3,0.9-13.3,1.2c-5.6,1.6-29.8,8.6-30.6,8.4c-0.4-0.1-7.9-1.7-9.2-3.7
				c-1-1.5-17.4-1.4-22.7-3.9c-3.4-1.6-17.6-2.4-18.8-3.5c-1.6-1.3-9.4-2.2-10.6-2.2c-1.3-0.1-11.1,0.9-12.9,2.2
				c-1.6,1.2-7.6,1.6-8.7,2c-1.7,0.5-9.1-0.3-10.4,0.2c-1.5,0.6-8.2,1.7-10,2.7c-1.3,0.7-8.3,0.3-9.9,1c-1.9,0.8-10.3,2.2-10.6,2.7
				c-1.1,1.6-44.5,5.3-56.6,12.1H-1v-16.3h1.3c24.2-13.6,53.2-20.9,55.3-24.1c0.7-1,6-3.8,9.8-5.4c3.1-1.3,7.8-0.5,10.4-2
				c3.5-1.9,6-4.2,9-5.4c2.8-1.1,7.8,0.6,11.2-0.5c2.1-0.7,5.1-1.4,8.3-3.9c3.5-2.7,10.3-4.5,12.9-4.4c2.5,0.1,7.1,1.9,10.3,4.4
				c2.5,2,12.1,3.6,18.9,6.9c10.5,5,20.9,4.8,22.8,7.9c2.4,4,5.2,7.2,6.1,7.4c1.6,0.4,16.1-13.5,27.3-16.8c2.1-0.6,8.5-0.8,14.2-2.5
				c6.2-1.8,9.5-2.3,11.4-2.5c5.8-0.5,16.4,4.1,25.7,8.4c6.5,3,20.2,3.9,26.6,4.9c11.6,1.9,23.6,0.5,25.2,0c1.2-0.4,6.5-1.2,8.9-3
				c6.8-5.2,11.1-11.5,16.2-13.8c3.3-1.5,9.9,1.1,16.8,0c6.6-1,13.7-3.9,17.1-3c2.9,0.8,6,3.2,9,5.4c4.7,3.5,22.3,3.1,28.3,1.5
				c11.1-2.9,22.2-10.2,29.8-9.9c4.4,0.2,8.5,2.6,14.6,3.9c9.8,2.1,25.7-3.1,30.9,0c2.5,1.4,5.5,3.5,8.4,3.9c2.8,0.5,7.1-1.2,9.4-1
				c4.1,0.4,11.6,6.3,13.4,9.4c4.9,8.4,39.1,9.4,61,14.8c9.1,2.2,41.2,7.3,56.5,13.3H627z"/>
			<path class="st10" d="M627,193.5v19.2h-0.7c-15.3-6-47.4-11.1-56.5-13.3c-21.9-5.3-56.1-6.4-61-14.8c-1.8-3.1-9.3-9-13.4-9.4
				c-2.3-0.2-6.6,1.5-9.4,1c-2.8-0.5-5.9-2.5-8.4-3.9c-5.3-3.1-21.2,2.1-30.9,0c-6.1-1.3-10.2-3.8-14.6-3.9
				c-7.5-0.3-18.7,6.9-29.8,9.9c-6,1.6-23.6,2-28.3-1.5c-3-2.2-6.1-4.6-9-5.4c-3.4-0.9-10.5,2-17.1,3c-6.9,1.1-13.6-1.5-16.8,0
				c-5.1,2.3-9.5,8.6-16.2,13.8c-2.3,1.8-7.6,2.6-8.9,3c-1.6,0.5-13.6,1.9-25.2,0c-6.4-1-20.1-2-26.6-4.9
				c-9.3-4.3-19.9-8.8-25.7-8.4c-1.9,0.1-5.3,0.7-11.4,2.5c-5.6,1.6-12.1,1.9-14.2,2.5c-11.2,3.3-25.7,17.1-27.3,16.8
				c-0.8-0.2-3.6-3.4-6.1-7.4c-1.9-3.1-12.3-2.8-22.8-7.9c-6.8-3.3-16.4-4.9-18.9-6.9c-3.2-2.6-7.8-4.3-10.3-4.4
				c-2.7-0.1-9.4,1.8-12.9,4.4c-3.3,2.5-6.3,3.3-8.3,3.9c-3.4,1.1-8.4-0.6-11.2,0.5c-3,1.2-5.5,3.5-9,5.4c-2.6,1.4-7.3,0.7-10.4,2
				c-3.8,1.6-9.2,4.4-9.8,5.4c-2.1,3.2-31.1,10.6-55.3,24.1H-1v-16.3h1c36.4-20.4,50.8-31.4,54-36.2c1-1.5,3.2-5.7,9-8.1
				c4.7-1.9,7.1-0.8,11-3c5.2-2.9,3.5-6.4,8-8.1c4.2-1.6,6.8,0.9,12-0.7c3.1-1,3.1-2.2,8-5.9c5.3-4,9-6.8,13-6.7
				c3.8,0.2,5.3,2.8,10,6.7c3.7,3,8.8,5.5,19,10.3c15.8,7.6,20.1,7.2,23,11.8c3.7,6,1.8,10.8,3,11.1c2.5,0.6,7.2-20.2,24-25.1
				c3.2-0.9,6.5-1.2,15-3.7c9.2-2.7,9.1-3.5,12-3.7c8.8-0.7,12,6.2,26,12.6c9.7,4.5,18.4,5.9,28,7.4c17.4,2.8,24.6,0.8,27,0
				c1.9-0.6,5.6-1.8,9-4.4c10.2-7.8,4.3-17.3,12-20.7c4.9-2.2,7.6,1.6,18,0c9.9-1.5,13-5.8,18-4.4c4.4,1.2,3.5,4.8,8,8.1
				c7.1,5.2,21,4.6,30,2.2c16.6-4.4,18.7-15.2,30-14.8c6.6,0.3,5.9,4,15,5.9c14.7,3.1,25.1-4.6,33,0c3.7,2.2,3.7,5.2,8,5.9
				c4.2,0.7,6.5-1.8,10-1.5c6.2,0.6,8.3,9.4,11,14c7.3,12.6,30.1,14.2,63,22.2c13.6,3.3,36.1,11,59,20H627z"/>
		</g>
		<g>
			<path class="st11" d="M0.3,218.6c24.2-13.6,53.2-20.9,55.3-24.1c0.7-1,6-3.8,9.8-5.4c3.1-1.3,7.8-0.5,10.4-2c3.5-1.9,6-4.2,9-5.4
				c2.8-1.1,7.8,0.6,11.2-0.5c2.1-0.7,5.1-1.4,8.3-3.9c3.5-2.7,10.3-4.5,12.9-4.4c2.5,0.1,7.1,1.9,10.3,4.4c2.5,2,12.1,3.6,18.9,6.9
				c10.5,5,20.9,4.8,22.8,7.9c2.4,4,5.2,7.2,6.1,7.4c1.6,0.4,16.1-13.5,27.3-16.8c2.1-0.6,8.5-0.8,14.2-2.5
				c6.2-1.8,9.5-2.3,11.4-2.5c5.8-0.5,16.4,4.1,25.7,8.4c6.5,3,20.2,3.9,26.6,4.9c11.6,1.9,23.6,0.5,25.2,0c1.2-0.4,6.5-1.2,8.9-3
				c6.8-5.2,11.1-11.5,16.2-13.8c3.3-1.5,9.9,1.1,16.8,0c6.6-1,13.7-3.9,17.1-3c2.9,0.8,6,3.2,9,5.4c4.7,3.5,22.3,3.1,28.3,1.5
				c11.1-2.9,22.2-10.2,29.8-9.9c4.4,0.2,8.5,2.6,14.6,3.9c9.8,2.1,25.7-3.1,30.9,0c2.5,1.4,5.5,3.5,8.4,3.9c2.8,0.5,7.1-1.2,9.4-1
				c4.1,0.4,11.6,6.3,13.4,9.4c4.9,8.4,39.1,9.4,61,14.8c9.1,2.2,41.2,7.3,56.5,13.3"/>
			<path class="st11" d="M0.7,234.9c12.1-6.8,55.6-10.5,56.6-12.1c0.3-0.5,8.7-1.9,10.6-2.7c1.6-0.6,8.6-0.3,9.9-1
				c1.7-1,8.4-2.1,10-2.7c1.4-0.5,8.7,0.3,10.4-0.2c1-0.3,7-0.7,8.7-2c1.8-1.3,11.6-2.3,12.9-2.2c1.2,0.1,9,0.9,10.6,2.2
				c1.2,1,15.4,1.8,18.8,3.5c5.2,2.5,21.7,2.4,22.7,3.9c1.2,2,8.8,3.6,9.2,3.7c0.8,0.2,25-6.7,30.6-8.4c1-0.3,10.5-0.4,13.3-1.2
				c3.1-0.9,9.9-1.2,10.9-1.2c2.9-0.2,20.8,2,25.4,4.2c3.2,1.5,21.9,2,25.1,2.5c5.8,0.9,22.6,0.3,23.4,0c0.6-0.2,7.6-0.6,8.7-1.5
				c3.4-2.6,18-5.8,20.5-6.9c1.6-0.7,12.2,0.5,15.7,0c3.3-0.5,14.5-1.9,16.2-1.5c1.5,0.4,8.5,1.6,10,2.7c2.4,1.7,23.7,1.5,26.7,0.7
				c5.5-1.5,25.8-5.1,29.5-4.9c2.2,0.1,11.1,1.3,14.1,2c4.9,1,26.2-1.5,28.9,0c1.2,0.7,7.3,1.7,8.8,2c1.4,0.2,7.7-0.6,8.8-0.5
				c2.1,0.2,14.9,3.1,15.8,4.7c2.5,4.2,48,4.7,59,7.4c4.5,1.1,46.4,3.7,54.1,6.7"/>
		</g>
	</g>
</g>
</svg>
