<svg id="Layer_1" data-name="Layer 1" xmlns="http://www.w3.org/2000/svg" viewBox="0 0 626 250.2"><defs><style>.cls-1{fill:#ffe7ae;}.cls-2{fill:#b9e29b;}.cls-3{fill:#ffb3ba;}.cls-4{fill:none;stroke:#b9e29b;stroke-miterlimit:10;}</style></defs><title>banner</title><path class="cls-1" d="M627,231.9v19H-1v-16H.67c12.12-6.8,55.58-10.45,56.64-12.07.32-.5,8.7-1.92,10.62-2.72,1.55-.64,8.57-.26,9.88-1,1.72-1,8.45-2.12,10-2.71s8.72.29,10.45-.25c1-.32,7-.72,8.67-2s11.56-2.27,12.9-2.22,9,.94,10.6,2.22c1.24,1,15.42,1.83,18.81,3.45,5.25,2.52,21.71,2.4,22.66,3.94,1.22,2,8.75,3.6,9.16,3.7.82.2,25-6.74,30.64-8.38,1-.3,10.5-.4,13.32-1.23,3.09-.9,9.9-1.16,10.87-1.23,2.92-.23,20.77,2.05,25.44,4.19,3.24,1.49,21.91,2,25.12,2.46,5.78.93,22.64.26,23.45,0,.62-.2,7.57-.59,8.73-1.47,3.39-2.6,18-5.76,20.51-6.91,1.64-.73,12.23.54,15.69,0,3.29-.5,14.54-1.92,16.22-1.48,1.48.39,8.51,1.62,10,2.72,2.35,1.73,23.67,1.53,26.69.73,5.53-1.45,25.76-5.07,29.53-4.93,2.2.09,11.09,1.33,14.14,2,4.89,1,26.25-1.54,28.89,0,1.23.71,7.34,1.73,8.76,2s7.66-.6,8.82-.49c2.06.2,14.86,3.12,15.76,4.68,2.45,4.21,48,4.71,59,7.39,4.55,1.11,46.42,3.67,54.06,6.65Z"/><path class="cls-2" d="M627,212.68V231.9h-.33c-7.64-3-49.51-5.54-54.06-6.65-11-2.68-56.55-3.18-59-7.39-.9-1.56-13.7-4.48-15.76-4.68-1.16-.11-7.42.73-8.82.49s-7.53-1.26-8.76-2c-2.64-1.54-24,1-28.89,0-3.05-.65-11.94-1.89-14.14-2-3.77-.14-24,3.48-29.53,4.93-3,.8-24.34,1-26.69-.73-1.49-1.1-8.52-2.33-10-2.72-1.68-.44-12.93,1-16.22,1.48-3.46.54-14.05-.73-15.69,0-2.55,1.15-17.12,4.31-20.51,6.91-1.16.88-8.11,1.27-8.73,1.47-.81.26-17.67.93-23.45,0-3.21-.51-21.88-1-25.12-2.46-4.67-2.14-22.52-4.42-25.44-4.19-1,.07-7.78.33-10.87,1.23-2.82.83-12.28.93-13.32,1.23-5.6,1.64-29.82,8.58-30.64,8.38-.41-.1-7.94-1.72-9.16-3.7-1-1.54-17.41-1.42-22.66-3.94-3.39-1.62-17.57-2.44-18.81-3.45-1.58-1.28-9.35-2.17-10.6-2.22s-11.14.88-12.9,2.22-7.63,1.65-8.67,2c-1.73.54-9-.3-10.45.25s-8.25,1.74-10,2.71c-1.31.72-8.33.34-9.88,1-1.92.8-10.3,2.22-10.62,2.72-1.06,1.62-44.52,5.27-56.64,12.07H-1V218.6H.33C24.57,205,53.55,197.68,55.65,194.45c.65-1,6-3.83,9.81-5.43,3.11-1.28,7.84-.51,10.44-2,3.46-1.93,6-4.24,9-5.43,2.81-1.09,7.77.6,11.22-.49a24.1,24.1,0,0,0,8.34-3.94c3.52-2.67,10.27-4.55,13-4.44,2.51.1,7.14,1.88,10.3,4.44,2.49,2,12.12,3.64,18.9,6.9,10.5,5,20.93,4.79,22.84,7.88,2.44,4,5.25,7.2,6.08,7.39,1.64.4,16.13-13.48,27.31-16.75,2.1-.61,8.53-.82,14.17-2.47a58.61,58.61,0,0,1,11.43-2.46c5.84-.45,16.39,4.1,25.72,8.38,6.49,3,20.15,3.9,26.56,4.93,11.58,1.85,23.61.52,25.23,0,1.24-.4,6.55-1.2,8.86-3,6.8-5.19,11.15-11.52,16.25-13.8,3.28-1.46,9.92,1.07,16.85,0,6.57-1,13.74-3.85,17.11-3,2.95.79,6,3.23,9,5.43,4.71,3.47,22.31,3.07,28.34,1.48,11.07-2.92,22.24-10.16,29.77-9.86,4.4.17,8.47,2.64,14.57,3.94,9.78,2.08,25.66-3.07,30.94,0,2.47,1.44,5.54,3.46,8.39,3.94s7.08-1.21,9.41-1c4.11.39,11.57,6.25,13.38,9.36,4.89,8.42,39.07,9.44,61,14.78,9.09,2.22,41.25,7.33,56.52,13.31Z"/><path class="cls-3" d="M627,193.46v19.22h-.67c-15.27-6-47.43-11.09-56.52-13.31-21.93-5.34-56.11-6.36-61-14.78-1.81-3.11-9.27-9-13.38-9.36-2.33-.23-6.61,1.46-9.41,1s-5.92-2.5-8.39-3.94c-5.28-3.07-21.16,2.08-30.94,0-6.1-1.3-10.17-3.77-14.57-3.94-7.53-.3-18.7,6.94-29.77,9.86-6,1.59-23.63,2-28.34-1.48-3-2.2-6.05-4.64-9-5.43-3.37-.89-10.54,1.95-17.11,3-6.93,1.07-13.57-1.46-16.85,0-5.1,2.28-9.45,8.61-16.25,13.8-2.31,1.76-7.62,2.56-8.86,3-1.62.52-13.65,1.85-25.23,0-6.41-1-20.07-1.95-26.56-4.93-9.33-4.28-19.88-8.83-25.72-8.38A58.61,58.61,0,0,0,217,180.15c-5.64,1.65-12.07,1.86-14.17,2.47-11.18,3.27-25.67,17.15-27.31,16.75-.83-.19-3.64-3.42-6.08-7.39-1.91-3.09-12.34-2.84-22.84-7.88-6.78-3.26-16.41-4.88-18.9-6.9-3.16-2.56-7.79-4.34-10.3-4.44-2.68-.11-9.43,1.77-13,4.44a24.1,24.1,0,0,1-8.34,3.94c-3.45,1.09-8.41-.6-11.22.49-3,1.19-5.53,3.5-9,5.43-2.6,1.45-7.33.68-10.44,2-3.83,1.6-9.16,4.44-9.81,5.43C53.55,197.68,24.57,205,.33,218.6H-1V202.33H0C36.36,181.94,50.84,171,54,166.11A18.6,18.6,0,0,1,63,158c4.66-1.93,7.09-.77,11-3,5.19-2.89,3.45-6.36,8-8.13,4.21-1.64,6.81.89,12-.74,3.11-1,3.07-2.17,8-5.92,5.28-4,9-6.81,13-6.65,3.76.16,5.26,2.82,10,6.65,3.73,3,8.82,5.47,19,10.35,15.75,7.56,20.14,7.2,23,11.83,3.66,6,1.76,10.79,3,11.09,2.47.59,7.22-20.23,24-25.13,3.15-.92,6.54-1.23,15-3.7,9.25-2.7,9.09-3.47,12-3.7,8.76-.68,12,6.15,26,12.57,9.73,4.47,18.39,5.86,28,7.39,17.37,2.79,24.58.78,27,0a28.72,28.72,0,0,0,9-4.43c10.2-7.79,4.34-17.28,12-20.7,4.92-2.2,7.61,1.6,18,0,9.85-1.52,12.95-5.77,18-4.44,4.43,1.18,3.54,4.85,8,8.13,7.06,5.21,21,4.61,30,2.22,16.61-4.37,18.71-15.23,30-14.78,6.6.26,5.85,4,15,5.91,14.67,3.13,25.08-4.6,33,0,3.7,2.16,3.74,5.18,8,5.92s6.5-1.82,10-1.48c6.16.6,8.29,9.39,11,14,7.34,12.63,30.12,14.16,63,22.18,13.64,3.33,36.09,11,59,20Z"/><path class="cls-4" d="M.33,218.6C24.57,205,53.55,197.68,55.65,194.45c.65-1,6-3.83,9.81-5.43,3.11-1.28,7.84-.51,10.44-2,3.46-1.93,6-4.24,9-5.43,2.81-1.09,7.77.6,11.22-.49a24.1,24.1,0,0,0,8.34-3.94c3.52-2.67,10.27-4.55,13-4.44,2.51.1,7.14,1.88,10.3,4.44,2.49,2,12.12,3.64,18.9,6.9,10.5,5,20.93,4.79,22.84,7.88,2.44,4,5.25,7.2,6.08,7.39,1.64.4,16.13-13.48,27.31-16.75,2.1-.61,8.53-.82,14.17-2.47a58.61,58.61,0,0,1,11.43-2.46c5.84-.45,16.39,4.1,25.72,8.38,6.49,3,20.15,3.9,26.56,4.93,11.58,1.85,23.61.52,25.23,0,1.24-.4,6.55-1.2,8.86-3,6.8-5.19,11.15-11.52,16.25-13.8,3.28-1.46,9.92,1.07,16.85,0,6.57-1,13.74-3.85,17.11-3,2.95.79,6,3.23,9,5.43,4.71,3.47,22.31,3.07,28.34,1.48,11.07-2.92,22.24-10.16,29.77-9.86,4.4.17,8.47,2.64,14.57,3.94,9.78,2.08,25.66-3.07,30.94,0,2.47,1.44,5.54,3.46,8.39,3.94s7.08-1.21,9.41-1c4.11.39,11.57,6.25,13.38,9.36,4.89,8.42,39.07,9.44,61,14.78,9.09,2.22,41.25,7.33,56.52,13.31"/><path class="cls-4" d="M.67,234.86c12.12-6.8,55.58-10.45,56.64-12.07.32-.5,8.7-1.92,10.62-2.72,1.55-.64,8.57-.26,9.88-1,1.72-1,8.45-2.12,10-2.71s8.72.29,10.45-.25c1-.32,7-.72,8.67-2s11.56-2.27,12.9-2.22,9,.94,10.6,2.22c1.24,1,15.42,1.83,18.81,3.45,5.25,2.52,21.71,2.4,22.66,3.94,1.22,2,8.75,3.6,9.16,3.7.82.2,25-6.74,30.64-8.38,1-.3,10.5-.4,13.32-1.23,3.09-.9,9.9-1.16,10.87-1.23,2.92-.23,20.77,2.05,25.44,4.19,3.24,1.49,21.91,2,25.12,2.46,5.78.93,22.64.26,23.45,0,.62-.2,7.57-.59,8.73-1.47,3.39-2.6,18-5.76,20.51-6.91,1.64-.73,12.23.54,15.69,0,3.29-.5,14.54-1.92,16.22-1.48,1.48.39,8.51,1.62,10,2.72,2.35,1.73,23.67,1.53,26.69.73,5.53-1.45,25.76-5.07,29.53-4.93,2.2.09,11.09,1.33,14.14,2,4.89,1,26.25-1.54,28.89,0,1.23.71,7.34,1.73,8.76,2s7.66-.6,8.82-.49c2.06.2,14.86,3.12,15.76,4.68,2.45,4.21,48,4.71,59,7.39,4.55,1.11,46.42,3.67,54.06,6.65"/></svg>