<svg id="Layer_1" data-name="Layer 1" xmlns="http://www.w3.org/2000/svg" viewBox="0 0 120 120"><defs><style>.cls-1{fill-rule:evenodd;}</style></defs><title>github</title><path class="cls-1" d="M60,1.1A60.39,60.39,0,0,0,40.91,118.79c3,.56,4.13-1.31,4.13-2.9,0-1.44-.06-6.2-.09-11.25-16.8,3.66-20.34-7.12-20.34-7.12-2.75-7-6.71-8.84-6.71-8.84-5.48-3.74.42-3.67.42-3.67,6.06.43,9.25,6.23,9.25,6.23,5.39,9.23,14.13,6.56,17.58,5,.54-3.91,2.1-6.57,3.83-8.08-13.41-1.53-27.51-6.7-27.51-29.84a23.37,23.37,0,0,1,6.22-16.21c-.63-1.52-2.69-7.67.58-16,0,0,5.08-1.63,16.61,6.19a57.09,57.09,0,0,1,30.25,0c11.52-7.82,16.59-6.19,16.59-6.19,3.28,8.31,1.22,14.46.59,16a23.33,23.33,0,0,1,6.22,16.21c0,23.19-14.13,28.3-27.58,29.79,2.17,1.88,4.1,5.55,4.1,11.19,0,8.08-.07,14.58-.07,16.57,0,1.6,1.08,3.49,4.14,2.89A60.39,60.39,0,0,0,60,1.1Z"/><path d="M22.48,87.81c-.13.3-.6.39-1,.18s-.68-.61-.54-.91.6-.39,1-.18.69.61.53.91Zm-.74-.55"/><path d="M24.93,90.53c-.29.27-.85.15-1.23-.27s-.47-1-.18-1.26.84-.14,1.24.28.47,1,.17,1.25Zm-.58-.61"/><path d="M27.31,94c-.37.26-1,0-1.35-.52s-.37-1.18,0-1.44,1,0,1.35.51.37,1.19,0,1.45Zm0,0"/><path d="M30.57,97.37c-.33.37-1,.27-1.55-.23a1.16,1.16,0,0,1-.34-1.54c.33-.37,1-.26,1.56.23s.69,1.18.33,1.54Zm0,0"/><path d="M35.07,99.32c-.14.48-.82.69-1.51.49s-1.13-.76-1-1.24.83-.7,1.52-.48,1.12.75,1,1.23Zm0,0"/><path d="M40,99.69c0,.49-.57.91-1.29.92s-1.3-.39-1.31-.88.57-.91,1.29-.93,1.31.39,1.31.89Zm0,0"/><path d="M44.61,98.9c.09.49-.41,1-1.12,1.12s-1.35-.17-1.44-.65.42-1,1.12-1.13,1.35.17,1.44.66Zm0,0"/></svg>