<svg id="Layer_1" data-name="Layer 1" xmlns="http://www.w3.org/2000/svg" viewBox="0 0 120 120"><defs><style>.cls-1{fill:#76a7fa;}.cls-2{fill:#a0c3ff;}.cls-3{fill:none;stroke:#000;stroke-miterlimit:10;stroke-width:3px;}</style></defs><title>scholar</title><path class="cls-1" d="M34.3,67c-.21.38-.4.77-.59,1.16C33.9,67.8,34.09,67.41,34.3,67Z"/><path class="cls-1" d="M69.94,53.41c-.33-.12-.66-.24-1-.34C69.28,53.17,69.61,53.29,69.94,53.41Z"/><path class="cls-1" d="M39.24,60.35c-.23.23-.46.46-.67.7C38.78,60.81,39,60.58,39.24,60.35Z"/><path class="cls-1" d="M36.44,63.64c-.19.26-.38.52-.56.79C36.06,64.16,36.25,63.9,36.44,63.64Z"/><path class="cls-1" d="M72.64,54.55l-1-.48Q72.13,54.3,72.64,54.55Z"/><path class="cls-2" d="M76.83,57c.43.3.85.61,1.25.94C77.67,57.62,77.26,57.31,76.83,57Z"/><path class="cls-1" d="M65.74,52.24c-.43-.09-.86-.17-1.3-.23C64.88,52.07,65.31,52.15,65.74,52.24Z"/><path class="cls-1" d="M64.44,52c-.4-.06-.8-.12-1.21-.16C63.64,51.89,64,51.94,64.44,52Z"/><path class="cls-2" d="M74,55.27c-.18-.1-.36-.2-.55-.29A5.77,5.77,0,0,1,74,55.27Z"/><path class="cls-1" d="M81.43,61.05c-.21-.24-.44-.47-.67-.7C81,60.58,81.22,60.81,81.43,61.05Z"/><path class="cls-1" d="M35.78,64.57l-.69,1.07C35.32,65.28,35.54,64.92,35.78,64.57Z"/><path class="cls-1" d="M86.29,68.19c-.19-.39-.38-.78-.59-1.16C85.91,67.41,86.1,67.8,86.29,68.19Z"/><path class="cls-1" d="M67.25,52.58c-.4-.11-.81-.2-1.23-.29C66.43,52.38,66.84,52.47,67.25,52.58Z"/><path class="cls-1" d="M49.91,53.46c-.36.13-.7.27-1,.41Z"/><path class="cls-1" d="M33.71,68.19a.84.84,0,0,0-.06.14h0A.91.91,0,0,1,33.71,68.19Z"/><path class="cls-2" d="M57.37,51.79l-.53.05Z"/><path class="cls-2" d="M46.51,55c-.19.09-.37.19-.55.29A5.77,5.77,0,0,1,46.51,55Z"/><path class="cls-1" d="M58.6,51.71c.47,0,.93,0,1.4,0C59.53,51.67,59.06,51.68,58.6,51.71Z"/><path class="cls-2" d="M68.94,53.07a4.42,4.42,0,0,0-.48-.15A4.42,4.42,0,0,1,68.94,53.07Z"/><path class="cls-1" d="M60.83,51.69c-.27,0-.55,0-.83,0C60.28,51.67,60.55,51.67,60.83,51.69Z"/><path class="cls-1" d="M58.34,51.72c-.33,0-.65,0-1,.07C57.69,51.76,58,51.73,58.34,51.72Z"/><path class="cls-1" d="M54,52.29c-.42.09-.83.18-1.23.29C53.16,52.47,53.57,52.38,54,52.29Z"/><path class="cls-1" d="M48.41,54.07l-1,.48Q47.87,54.3,48.41,54.07Z"/><path class="cls-1" d="M60.83,51.69a5.43,5.43,0,0,1,.57,0A5.43,5.43,0,0,0,60.83,51.69Z"/><path class="cls-1" d="M84.91,65.64l-.69-1.07C84.46,64.92,84.68,65.28,84.91,65.64Z"/><path class="cls-1" d="M51.06,53.07c-.34.1-.67.22-1,.34C50.39,53.29,50.72,53.17,51.06,53.07Z"/><path class="cls-1" d="M71.14,53.87c-.35-.14-.69-.28-1-.41Z"/><path class="cls-1" d="M86.29,68.19a.91.91,0,0,1,.07.14h0A.84.84,0,0,0,86.29,68.19Z"/><path class="cls-1" d="M62.63,51.79c-.32,0-.64-.06-1-.07C62,51.73,62.31,51.76,62.63,51.79Z"/><path class="cls-2" d="M51.54,52.92a4.42,4.42,0,0,0-.48.15A4.42,4.42,0,0,1,51.54,52.92Z"/><path class="cls-1" d="M55.56,52c-.44.06-.87.14-1.3.23C54.69,52.15,55.12,52.07,55.56,52Z"/><path class="cls-2" d="M63.16,51.84l-.53-.05Z"/><path class="cls-1" d="M40.38,59.25c-.3.27-.61.56-.9.85Z"/><path class="cls-2" d="M43.17,57c-.43.3-.84.61-1.25.94C42.32,57.62,42.74,57.31,43.17,57Z"/><path class="cls-1" d="M80.52,60.1c-.29-.29-.6-.58-.9-.85Z"/><path class="cls-1" d="M56.77,51.85c-.41,0-.81.1-1.21.16C56,51.94,56.36,51.89,56.77,51.85Z"/><path class="cls-1" d="M84.12,64.43c-.18-.27-.37-.53-.56-.79C83.75,63.9,83.94,64.16,84.12,64.43Z"/><path class="cls-1" d="M73.49,55c-.27-.15-.54-.29-.82-.42C73,54.69,73.22,54.83,73.49,55Z"/><path d="M60,0A60,60,0,1,1,0,60,60,60,0,0,1,60,0ZM86.52,68.7,110,49.58,60,10,10,49.58,33.48,68.7a29.17,29.17,0,1,0,53,0Z"/><path class="cls-1" d="M47.33,54.56c-.28.13-.55.27-.82.42C46.78,54.83,47.05,54.69,47.33,54.56Z"/><circle class="cls-3" cx="60" cy="60" r="60"/><polyline class="cls-3" points="33.48 68.7 10 49.58 60 10"/><polyline class="cls-3" points="86.52 68.7 110 49.58 60 10 60 51.67"/><path class="cls-3" d="M56.84,51.84l.53-.05"/><path class="cls-3" d="M51.06,53.07a4.42,4.42,0,0,1,.48-.15"/><path class="cls-3" d="M46,55.27a5.77,5.77,0,0,1,.55-.29"/><path class="cls-3" d="M41.92,58c.4-.33.82-.64,1.25-.94"/><path class="cls-3" d="M86.36,68.33c.06.12.11.24.16.37a29.17,29.17,0,1,1-53,0c.05-.13.1-.25.16-.37"/><path class="cls-3" d="M76.83,57c.43.3.85.61,1.25.94"/><path class="cls-3" d="M73.49,55a5.77,5.77,0,0,1,.55.29"/><path class="cls-3" d="M68.46,52.92a4.42,4.42,0,0,1,.48.15"/><path class="cls-3" d="M62.63,51.79l.53.05"/><path class="cls-3" d="M33.64,68.33a.91.91,0,0,1,.07-.14c.19-.39.38-.78.59-1.16s.52-.93.79-1.39.45-.72.69-1.07l.1-.14c.18-.27.37-.53.56-.79a29.3,29.3,0,0,1,2.13-2.59c.21-.24.44-.47.67-.7l.24-.25.9-.85c.5-.45,1-.89,1.54-1.3s.82-.64,1.25-.94A28.83,28.83,0,0,1,46,55.27c.18-.1.36-.2.55-.29s.54-.29.82-.42h0q.51-.25,1-.48l.45-.2,1-.41.15-.05c.33-.12.66-.24,1-.34a4.42,4.42,0,0,1,.48-.15c.4-.13.81-.24,1.21-.34s.82-.2,1.23-.29l.28,0c.43-.09.86-.17,1.3-.23s.8-.12,1.21-.16h.07l.53-.05c.32,0,.64-.06,1-.07h.26c.47,0,.93,0,1.4,0,.28,0,.55,0,.83,0a5.43,5.43,0,0,1,.57,0h.26c.33,0,.65,0,1,.07l.53.05h.07c.41,0,.81.09,1.21.16s.87.14,1.3.23l.28,0c.41.09.82.18,1.23.29s.81.21,1.21.34a4.42,4.42,0,0,1,.48.15c.34.1.67.22,1,.34l.15.05,1,.41.45.2q.54.23,1,.48h0c.28.13.55.27.82.42s.37.19.55.29A28.83,28.83,0,0,1,76.83,57c.43.3.84.61,1.25.94s1,.85,1.54,1.3l.9.85.24.25c.23.23.46.46.67.7a29.3,29.3,0,0,1,2.13,2.59c.19.26.38.52.56.79l.1.14c.24.35.46.71.69,1.07s.54.92.79,1.39.4.77.59,1.16a.91.91,0,0,1,.07.14H33.64Z"/></svg>