<?xml version="1.0" encoding="utf-8"?>
<!-- Generator: Adobe Illustrator 23.0.4, SVG Export Plug-In . SVG Version: 6.00 Build 0)  -->
<svg version="1.1" id="Layer_1" xmlns="http://www.w3.org/2000/svg" xmlns:xlink="http://www.w3.org/1999/xlink" x="0px" y="0px"
	 viewBox="0 0 120 120" style="enable-background:new 0 0 120 120;" xml:space="preserve">
<path d="M120,60c0,33.14-26.86,60-60,60S0,93.14,0,60S26.86,0,60,0S120,26.86,120,60z M44.92,92.92c30.58,0,47.3-25.34,47.3-47.3
	c0-0.72,0-1.45-0.03-2.14c3.24-2.34,6.07-5.27,8.31-8.62c-2.96,1.31-6.17,2.21-9.55,2.62c3.45-2.07,6.07-5.31,7.31-9.2
	c-3.21,1.9-6.76,3.28-10.55,4.03c-3.03-3.24-7.34-5.24-12.14-5.24c-9.17,0-16.62,7.45-16.62,16.62c0,1.31,0.14,2.59,0.45,3.79
	c-13.82-0.69-26.06-7.31-34.27-17.38c-1.41,2.45-2.24,5.31-2.24,8.34c0,5.76,2.93,10.86,7.41,13.82c-2.72-0.07-5.27-0.83-7.52-2.07
	c0,0.07,0,0.14,0,0.21c0,8.07,5.72,14.76,13.34,16.31c-1.38,0.38-2.86,0.59-4.38,0.59c-1.07,0-2.1-0.1-3.14-0.31
	c2.1,6.62,8.24,11.41,15.51,11.55c-5.69,4.45-12.86,7.1-20.65,7.1c-1.34,0-2.65-0.07-3.96-0.24C26.78,90.17,35.54,92.92,44.92,92.92
	"/>
</svg>
